<svg width="50" height="50" viewBox="0 0 50 50" fill="none" xmlns="http://www.w3.org/2000/svg">
<path d="M49.9999 9.05642H44.2079L37.5278 33.5908C37.2455 34.3947 36.9886 34.8941 35.7009 34.8941C34.9491 34.8941 34.4098 34.2773 34.5981 33.5908L35.6034 29.8716H29.5092C29.5092 29.8716 28.806 32.5024 28.7839 32.5489C27.4209 37.5227 30.0716 40.1513 34.2205 40.1513C40.0812 40.1513 42.4518 36.7409 43.6 32.5489C43.6 32.5024 49.9999 9.0531 49.9999 9.0531V9.05642Z" fill="#44BA3C"/>
<path d="M29.7983 28.6614H35.8926L39.4114 15.7741C40.5098 11.746 37.6974 9 33.8309 9C28.5072 9 25.5509 12.128 24.3351 16.5791C24.241 16.9334 19.4112 34.4601 19.4112 34.4601C19.1056 35.337 18.7767 35.9515 17.5831 35.9515C16.787 35.9515 16.0817 35.2916 16.3153 34.4866L21.4042 15.7741C22.4129 11.891 19.2938 9 15.8248 9C10.2443 9 7.64223 11.7493 6.53941 15.7741L0 39.7726H5.81084L12.4942 15.3368C12.7057 14.5063 13.2449 13.842 14.371 13.842C15.1671 13.842 15.6587 14.5063 15.424 15.3368L10.5499 33.2188C9.39832 37.4098 12.0491 40.7249 15.9898 40.8201C21.0311 40.9153 23.9608 39.3286 25.5774 33.2188L30.5003 15.3368C30.7117 14.5063 31.3196 13.842 32.377 13.842C33.1743 13.842 33.6648 14.5063 33.4311 15.3368L29.7983 28.6614Z" fill="#184CA2"/>
</svg>
